<svg width="1228" height="451" viewBox="0 0 1228 451" fill="none" xmlns="http://www.w3.org/2000/svg">
<rect width="1228" height="451" fill="url(#paint0_linear_2_108)"/>
<rect x="422.072" y="58" width="192.819" height="61.4072" rx="12" fill="#B2B2EE" fill-opacity="0.28"/>
<rect x="422.072" y="331.876" width="192.819" height="61.4072" rx="12" fill="#B2B2EE" fill-opacity="0.28"/>
<rect x="562.081" y="147.655" width="192.819" height="61.4072" rx="12" fill="#B2B2EE" fill-opacity="0.28"/>
<rect x="650.507" y="238.537" width="192.819" height="61.4072" rx="12" fill="#B2B2EE" fill-opacity="0.94"/>
<circle cx="393.825" cy="88.7036" r="9.82515" fill="#B2B2EE" fill-opacity="0.28"/>
<circle cx="527.693" cy="178.358" r="9.82515" fill="#B2B2EE" fill-opacity="0.28"/>
<circle cx="624.716" cy="269.241" r="9.82515" fill="#B2B2EE" fill-opacity="0.28"/>
<circle cx="393.825" cy="362.58" r="9.82515" fill="#B2B2EE" fill-opacity="0.28"/>
<rect x="391.369" y="97.3006" width="3.68443" height="255.454" fill="#B2B2EE" fill-opacity="0.28"/>
<rect x="525.237" y="189.411" width="3.68443" height="82.2857" fill="#B2B2EE" fill-opacity="0.28"/>
<rect x="528.921" y="271.697" width="3.68443" height="85.9701" transform="rotate(-90 528.921 271.697)" fill="#B2B2EE" fill-opacity="0.28"/>
<rect x="442.951" y="78.8784" width="119.13" height="2.45629" rx="1.22814" fill="#B2B2EE" fill-opacity="0.94"/>
<rect x="442.951" y="78.8784" width="119.13" height="2.45629" rx="1.22814" fill="#B2B2EE" fill-opacity="0.94"/>
<rect x="442.951" y="94.8443" width="66.3198" height="2.45629" rx="1.22814" fill="#B2B2EE" fill-opacity="0.94"/>
<rect x="442.951" y="94.8443" width="66.3198" height="2.45629" rx="1.22814" fill="#B2B2EE" fill-opacity="0.94"/>
<rect x="582.959" y="168.533" width="119.13" height="2.45629" rx="1.22814" fill="#B2B2EE" fill-opacity="0.94"/>
<rect x="582.959" y="168.533" width="119.13" height="2.45629" rx="1.22814" fill="#B2B2EE" fill-opacity="0.94"/>
<rect x="582.959" y="184.499" width="66.3198" height="2.45629" rx="1.22814" fill="#B2B2EE" fill-opacity="0.94"/>
<rect x="582.959" y="184.499" width="66.3198" height="2.45629" rx="1.22814" fill="#B2B2EE" fill-opacity="0.94"/>
<rect x="442.951" y="351.526" width="119.13" height="2.45629" rx="1.22814" fill="#B2B2EE" fill-opacity="0.94"/>
<rect x="442.951" y="351.526" width="119.13" height="2.45629" rx="1.22814" fill="#B2B2EE" fill-opacity="0.94"/>
<rect x="442.951" y="367.492" width="66.3198" height="2.45629" rx="1.22814" fill="#B2B2EE" fill-opacity="0.94"/>
<rect x="442.951" y="367.492" width="66.3198" height="2.45629" rx="1.22814" fill="#B2B2EE" fill-opacity="0.94"/>
<defs>
<linearGradient id="paint0_linear_2_108" x1="6.14" y1="12.0267" x2="1067.66" y2="700.317" gradientUnits="userSpaceOnUse">
<stop stop-color="#3F3D56" stop-opacity="0.1"/>
<stop offset="1" stop-color="#B2B2EE" stop-opacity="0.5"/>
</linearGradient>
</defs>
</svg>
